<svg xmlns="http://www.w3.org/2000/svg" width="18.517" height="21.5" viewBox="0 0 18.517 21.5"><defs><style>.a{fill:#232323;stroke:#232323;stroke-width:0.5px;}</style></defs><path class="a" d="M71.063,16.712a3.322,3.322,0,0,1-1.074-1.35,14.547,14.547,0,0,1-1.12-6.173c0-.008,0-.016,0-.024a5.96,5.96,0,0,0-3.8-5.4V2.339A2.443,2.443,0,0,0,62.539,0h-.21A2.443,2.443,0,0,0,59.8,2.339V3.761A5.958,5.958,0,0,0,56,9.189a14.547,14.547,0,0,1-1.12,6.173,3.322,3.322,0,0,1-1.074,1.35.586.586,0,0,0-.356.68.67.67,0,0,0,.668.481H59a3.446,3.446,0,0,0,6.862,0H70.75a.67.67,0,0,0,.668-.481A.586.586,0,0,0,71.063,16.712ZM61.132,2.339a1.156,1.156,0,0,1,1.2-1.107h.21a1.156,1.156,0,0,1,1.2,1.107V3.361a6.981,6.981,0,0,0-2.6,0V2.339Zm1.3,17.428a2.032,2.032,0,0,1-2.1-1.894h4.2A2.031,2.031,0,0,1,62.434,19.768Zm2.684-3.127H55.637a6.333,6.333,0,0,0,.349-.566,14.539,14.539,0,0,0,1.346-6.886,5.117,5.117,0,0,1,10.2,0c0,.008,0,.015,0,.023a14.511,14.511,0,0,0,1.346,6.861,6.341,6.341,0,0,0,.349.566Z" transform="translate(-53.176 0.25)"/></svg>