<svg xmlns="http://www.w3.org/2000/svg" width="19" height="14" viewBox="0 0 19 14"><defs><style>.a{fill:#cacaff;}.b{fill:#ababf2;}</style></defs><path class="a" d="M0,0H5.5C8.538,0,11,2.167,11,4.84V6.16C11,8.833,8.538,11,5.5,11S0,8.833,0,6.16Z" transform="translate(19 3) rotate(90)"/><path class="a" d="M7,0H7a7,7,0,0,1,7,7V7a7,7,0,0,1-7,7H.233A.233.233,0,0,1,0,13.767V7A7,7,0,0,1,7,0Z" transform="translate(14) rotate(90)"/><path class="b" d="M-2453-226.5c0-3,2.116-5.442,4.745-5.5a6.966,6.966,0,0,1,1.254,4,7,7,0,0,1-3.706,6.178A5.7,5.7,0,0,1-2453-226.5Z" transform="translate(2461 235)"/></svg>