<svg xmlns="http://www.w3.org/2000/svg" width="112" height="79" viewBox="0 0 112 79"><defs><style>.a{fill:#e6e6fa;}.b{fill:#dadaf5;}</style></defs><g transform="translate(-124 -178)"><path class="a" d="M0,0H30.5C47.345,0,61,12.563,61,28.06v7.653c0,15.5-13.655,28.06-30.5,28.06S0,51.21,0,35.713Z" transform="translate(236 196) rotate(90)"/><path class="a" d="M39,0h1A39,39,0,0,1,79,39v0A39,39,0,0,1,40,78H1.3A1.3,1.3,0,0,1,0,76.7V39A39,39,0,0,1,39,0Z" transform="translate(202 178) rotate(90)"/><path class="b" d="M48.227,48.5c0-15.292,10.353-27.956,23.857-30.16A38.814,38.814,0,0,1,78,39v1A38.975,38.975,0,0,1,59.67,73.079,31.373,31.373,0,0,1,48.227,48.5Z" transform="translate(124 178)"/></g></svg>