<svg xmlns="http://www.w3.org/2000/svg" width="3" height="17" viewBox="0 0 3 17">
    <defs>
        <style>.a{fill:#232323;}</style>
    </defs>
    <path class="a"
          d="M-1237,1297.5a1.5,1.5,0,0,1,1.5-1.5,1.5,1.5,0,0,1,1.5,1.5,1.5,1.5,0,0,1-1.5,1.5A1.5,1.5,0,0,1-1237,1297.5Zm0-7a1.5,1.5,0,0,1,1.5-1.5,1.5,1.5,0,0,1,1.5,1.5,1.5,1.5,0,0,1-1.5,1.5A1.5,1.5,0,0,1-1237,1290.5Zm0-7a1.5,1.5,0,0,1,1.5-1.5,1.5,1.5,0,0,1,1.5,1.5,1.5,1.5,0,0,1-1.5,1.5A1.5,1.5,0,0,1-1237,1283.5Z"
          transform="translate(1237 -1282)"/>
</svg>