<svg xmlns="http://www.w3.org/2000/svg" width="20.351" height="18.466" viewBox="0 0 20.351 18.466"><defs><style>.a{fill:none;stroke:#fff;stroke-width:1.5px;}</style></defs><g transform="translate(0.75 0.75)"><circle class="a" cx="2.074" cy="2.074" r="2.074" transform="translate(7.352 7.352)"/><path class="a" d="M8.6,2,6.873,3.885H3.885A1.891,1.891,0,0,0,2,5.77V17.081a1.891,1.891,0,0,0,1.885,1.885H18.966a1.891,1.891,0,0,0,1.885-1.885V5.77a1.891,1.891,0,0,0-1.885-1.885H15.978L14.253,2Zm2.828,14.138a4.713,4.713,0,1,1,4.713-4.713A4.714,4.714,0,0,1,11.425,16.138Z" transform="translate(-2 -2)"/></g></svg>